<svg width="40" height="40" viewBox="0 0 40 40" fill="none" xmlns="http://www.w3.org/2000/svg">
<path d="M8.21482 29.428C7.56395 28.7772 7.56395 27.7219 8.21482 27.071L8.88538 26.4005C9.38974 25.8961 9.49397 25.1291 9.22047 24.4704C8.94708 23.8119 8.32764 23.3333 7.61464 23.3333H6.66667C5.74619 23.3333 5 22.5871 5 21.6667V18.3333C5 17.4129 5.74619 16.6667 6.66667 16.6667L7.61461 16.6667C8.32763 16.6667 8.94708 16.1881 9.22049 15.5296C9.494 14.8708 9.38976 14.1038 8.88539 13.5994L8.21485 12.9289C7.56397 12.278 7.56397 11.2227 8.21485 10.5719L10.5719 8.21485C11.2227 7.56398 12.278 7.56398 12.9289 8.21485L13.5994 8.88539C14.1038 9.38976 14.8708 9.494 15.5296 9.22049C16.1881 8.94708 16.6667 8.32763 16.6667 7.61461V6.66667C16.6667 5.74619 17.4129 5 18.3333 5M13.5993 31.1146C14.1037 30.6102 14.8708 30.506 15.5296 30.7795C16.1881 31.0529 16.6667 31.6724 16.6667 32.3854V33.3333C16.6667 34.2538 17.4129 35 18.3333 35H21.6667C22.5871 35 23.3333 34.2538 23.3333 33.3333V32.3854C23.3333 31.6724 23.8119 31.0529 24.4704 30.7795C25.1292 30.506 25.8962 30.6102 26.4006 31.1146L27.071 31.7851C27.7219 32.436 28.7772 32.436 29.4281 31.7851M31.7851 27.071L31.1146 26.4006C30.6102 25.8962 30.506 25.1292 30.7795 24.4704C31.0529 23.8119 31.6724 23.3333 32.3854 23.3333H33.3333C34.2538 23.3333 35 22.5871 35 21.6667V18.3333C35 17.4129 34.2538 16.6667 33.3333 16.6667L32.3854 16.6667C31.6724 16.6667 31.0529 16.1881 30.7795 15.5296C30.506 14.8708 30.6102 14.1037 31.1146 13.5993L31.785 12.9289C32.4359 12.278 32.4359 11.2227 31.785 10.5719L29.428 8.21485C28.7771 7.56397 27.7219 7.56397 27.071 8.21485L26.4005 8.88538C25.8961 9.38974 25.1291 9.49397 24.4704 9.22047C23.8119 8.94708 23.3333 8.32764 23.3333 7.61464M23.3333 20C23.3333 21.8409 21.8409 23.3333 20 23.3333C18.1591 23.3333 16.6667 21.8409 16.6667 20C16.6667 18.1591 18.1591 16.6667 20 16.6667" stroke="#232323" stroke-width="2" stroke-linecap="round"/>
</svg>
