<svg width="129" height="129" viewBox="0 0 129 129" fill="none" xmlns="http://www.w3.org/2000/svg">
<path d="M82.2377 102.663C75.9053 105.861 68.9069 107.519 61.8127 107.5C53.3296 107.497 45.015 105.132 37.8001 100.67C30.5852 96.2082 24.7551 89.8258 20.9627 82.2377C17.7642 75.9053 16.1067 68.9069 16.1252 61.8127V59.1252C16.7432 47.9218 21.472 37.34 29.406 29.406C37.34 21.472 47.9218 16.7432 59.1252 16.1252M82.2377 20.9627C89.8258 24.7551 96.2082 30.5852 100.67 37.8001C105.132 45.015 107.497 53.3296 107.5 61.8127C107.519 68.9069 105.861 75.9053 102.663 82.2377L112.875 112.875L96.75 107.5M43 51.0625H80.625M43 72.5625H69.875" stroke="#232323" stroke-width="3" stroke-linecap="round" stroke-linejoin="round"/>
</svg>
